# xmcd
# Track frame offsets:
# 150
# 12967
# 22887
# 35700
# 56520
# 76435
# 88455
# 104250
# 114637
# 128600
# 142500
# 155775
#
# Disc length: 2311 seconds
# Revision: 0
# Processed by: cddbd v1.4PL0 Copyright (c) Steve Scherf et al.
# Submitted via: VisiTrax 2.9.5.180 - For more info visit www.synapsa.com
#
DISCID=9509050c
DTITLE=Lee Hazlewood - Son Of A Gun
DYEAR=1980
DGENRE=
TTITLE0=Son Of A Gun
TTITLE1=Run Boy Run
TTITLE2=These Boots Are Made For Walking
TTITLE3=Whole Lotta Shakin´Going On
TTITLE4=The Ballad Of Lucy Jordan
TTITLE5=The Fool
TTITLE6=Back On The Streets Again
TTITLE7=Save The Place For Me
TTITLE8=Thunder And Lightnin`
TTITLE9=Suddenly Tennessee
TTITLE10=You Make It So Easy
TTITLE11=I´m Like The Rider On A White Horse
EXTD=
EXTT0=
EXTT1=
EXTT2=
EXTT3=
EXTT4=
EXTT5=
EXTT6=
EXTT7=
EXTT8=
EXTT9=
EXTT10=
EXTT11=
PLAYORDER=
